# xmcd CD database file
#
# Track frame offsets:
#	150
#	18615
#	47525
#	72480
#	101642
#	110012
#	130567
#	145935
#	179867
#	191545
#	210407
#	237045
#	257295
#
# Disc length: 3726 seconds
#
# Revision: 1
# Processed by: cddbd v1.5.2PL0 Copyright (c) Steve Scherf et al.
# Submitted via: CDex 1.70beta2
#
DISCID=b70e8c0d
DTITLE=近藤房之助 - complete of 近藤房之助 at the BEING studio
DYEAR=2003
DGENRE=Blues
TTITLE0=TAKE ME TO THE RIVER (1991.12.23 at ROPPONGI PIT INN)
TTITLE1=TRAVELLING (2003.5.1 at hills パン工場）
TTITLE2=Same Ol’ Blues （1995.12.21 at LIQUIDROOM）
TTITLE3=青い影〜A WHITER SHADE OF PALE〜 （1998.1.17 at NISSIN POWER STATION）
TTITLE4=Cross Road Blues
TTITLE5=電話
TTITLE6=SUKIYAKI 〜上を向いて歩こう〜
TTITLE7=DON’T LET ME BE LONELY TONIGHT （1993.8.4 at ON AIR）
TTITLE8=Stand By Me (1992.7.22 CANBODIA カンダールスタン村）
TTITLE9=DEPRESSING NIGHT 〜DJ ME−YA REMIX〜
TTITLE10=Good−by　morning 〜Slow Version〜　（宇徳敬子 and 近藤房之助）
TTITLE11=白いブランコでおやすみ　（高田純次 ＆ 近藤房之助）
TTITLE12=BOMBER GIRL （近藤房之助 and 織田哲朗）
EXTD=YEAR: 2003
EXTT0=
EXTT1=
EXTT2=
EXTT3=
EXTT4=
EXTT5=
EXTT6=
EXTT7=
EXTT8=
EXTT9=
EXTT10=
EXTT11=
EXTT12=
PLAYORDER=
